ply
format ascii 1.0
comment Created in Blender version 5.0.0
element vertex 14
property float x
property float y
property float z
property float s
property float t
element face 12
property list uchar uint vertex_indices
end_header
-128 128 128 0.875 0.5
128 -128 128 0.625 0.75
128 128 128 0.625 0.5
-128 -128 -128 0.375 1
128 -128 -128 0.375 0.75
-128 -128 128 0.625 0
-128 128 -128 0.375 0.25
-128 -128 -128 0.375 0
128 128 -128 0.375 0.5
-128 -128 -128 0.125 0.75
-128 128 -128 0.125 0.5
-128 128 128 0.625 0.25
-128 -128 128 0.875 0.75
-128 -128 128 0.625 1
3 0 1 2
3 1 3 4
3 5 6 7
3 8 9 10
3 2 4 8
3 11 8 6
3 0 12 1
3 1 13 3
3 5 11 6
3 8 4 9
3 2 1 4
3 11 2 8
