ply
format ascii 1.0
comment Created in Blender version 5.0.0
element vertex 20
property float x
property float y
property float z
property float s
property float t
element face 18
property list uchar uint vertex_indices
end_header
-128 -256 -128 0.625 0
-128 0 -128 0.375 0
-128 0 128 0.375 0.25
-128 -256 128 0.625 0.25
128 0 128 0.375 0.5
128 -256 128 0.625 0.5
128 0 -128 0.375 0.75
128 -256 -128 0.625 0.75
-128 0 -128 0.375 1
-128 0 128 0.125 0.5
-128 0 -128 0.125 0.75
0 -352 128 0.75 0.5
0 -352 -128 0.75 0.75
-128 -256 -128 0.875 0.75
-128 -256 -128 0.625 1
0 -352 -128 0.625 0.875
0 -352 128 0.625 0.375
0 -384 128 0.75 0.5
-128 -256 128 0.875 0.5
0 -384 -128 0.75 0.75
3 0 1 2
3 3 2 4
3 5 4 6
3 7 6 8
3 4 9 10
3 11 5 7
3 11 12 13
3 14 15 7
3 5 16 3
3 12 11 17
3 0 2 3
3 3 4 5
3 5 6 7
3 7 8 14
3 4 10 6
3 11 7 12
3 11 13 18
3 12 17 19
