ply
format ascii 1.0
comment Created in Blender version 5.0.0
element vertex 172
property float x
property float y
property float z
property float s
property float t
element face 192
property list uchar uint vertex_indices
end_header
0 256 0 0.71875 0.019186541
0 230.64803 111.07424 0.75 0.14201845
42.506275 230.64803 102.61922 0.6875 0.14201845
9.918213e-05 159.6134 200.1488 0.7499999 0.26485026
95.51073 56.965363 230.58327 0.6875 0.3876822
76.59365 159.6134 184.91342 0.6875 0.26485026
0 -159.6134 200.14885 0.75 0.72890496
95.51073 -56.965363 230.58327 0.6875 0.59978426
0 -56.965363 249.58154 0.75 0.59978426
5.340576e-05 -230.64803 111.07419 0.74999994 0.85802567
0 -256 0 0.71874994 0.9871464
42.506275 -230.64803 102.61922 0.6875 0.85802567
0 -56.965363 249.58154 0.854282 0.5714286
95.51073 56.965363 230.58327 0.76571155 0.42857146
0 56.965363 249.58154 0.854282 0.42857146
76.59365 -159.6134 184.91342 0.6875 0.72890496
141.52661 -159.6134 141.5266 0.625 0.72890496
0 256 0 0.65625 0.019186541
78.54135 230.64803 78.54134 0.625 0.14201845
141.52661 159.6134 141.5266 0.625 0.26485026
176.4808 -56.965363 176.48077 0.625 0.59978426
0 -256 0 0.65625 0.9871464
78.54135 -230.64803 78.54134 0.625 0.85802567
95.51073 -56.965363 230.58327 0.76571155 0.5714286
176.4808 56.965363 176.48077 0.677141 0.42857146
0 256 0 0.59375 0.019186541
102.61922 230.64803 42.50626 0.5625 0.14201845
176.4808 56.965363 176.48077 0.625 0.3876822
184.91342 159.6134 76.59363 0.5625 0.26485026
184.91342 -159.6134 76.59363 0.5625 0.72890496
230.58327 -56.965363 95.51068 0.5625 0.59978426
0 -256 0 0.59375 0.9871464
102.61922 -230.64803 42.50626 0.5625 0.85802567
176.4808 -56.965363 176.48077 0.677141 0.5714286
230.58327 56.965363 95.51068 0.58857054 0.42857146
230.58327 56.965363 95.51068 0.5625 0.3876822
200.14883 159.6134 -2.2888184e-05 0.49999997 0.26485026
249.58151 -56.965363 -3.8146973e-05 0.49999997 0.59978426
0 -256 0 0.53125 0.9871464
111.074234 -230.64803 -1.1444092e-05 0.49999997 0.85802567
111.074234 230.64803 -1.1444092e-05 0.49999997 0.14201841
230.58327 -56.965363 95.51068 0.58857054 0.5714286
249.58151 56.965363 -3.8146973e-05 0.49999997 0.42857146
200.14883 -159.6134 -2.2888184e-05 0.49999997 0.72890496
0 256 0 0.53125 0.019186541
0 -256 0 0.46874997 0.9871464
102.6192 -230.64803 -42.506283 0.43749997 0.85802567
102.6192 230.64803 -42.506283 0.43749997 0.14201841
249.58151 -56.965363 -3.8146973e-05 0.49999997 0.5714286
230.58322 56.965363 -95.51076 0.41142944 0.42857146
184.91339 -159.6134 -76.59367 0.43749997 0.72890496
0 256 0 0.46874997 0.019186541
249.58151 56.965363 -3.8146973e-05 0.49999997 0.3876822
184.91339 159.6134 -76.59367 0.43749997 0.26485026
230.58322 -56.965363 -95.51076 0.43749997 0.59978426
78.54133 230.64803 -78.54135 0.375 0.14201841
230.58322 -56.965363 -95.51076 0.41142944 0.5714286
176.48073 56.965363 -176.48082 0.32285887 0.42857146
78.54133 -230.64803 -78.54135 0.375 0.85802567
141.52657 -159.6134 -141.52663 0.37499997 0.72890496
0 256 0 0.40624997 0.019186541
176.48073 56.965363 -176.48082 0.37499994 0.3876822
141.52657 159.6134 -141.52663 0.37499997 0.26485026
176.48073 -56.965363 -176.48082 0.37499994 0.59978426
0 -256 0 0.40624997 0.9871464
176.48073 -56.965363 -176.48082 0.32285887 0.5714286
95.51063 56.965363 -230.58327 0.23428836 0.42857146
76.5936 -159.6134 -184.91342 0.31249997 0.72890496
0 256 0 0.34375 0.019186541
42.506245 230.64803 -102.61921 0.31249997 0.14201841
76.5936 159.6134 -184.91342 0.31249997 0.26485026
95.51063 -56.965363 -230.58327 0.31249994 0.59978426
0 -256 0 0.34375 0.9871464
42.506245 -230.64803 -102.61921 0.31249997 0.85802567
0 256 0 0.28124997 0.019186541
-2.2888184e-05 230.64803 -111.07422 0.24999997 0.14201841
95.51063 56.965363 -230.58327 0.31249994 0.3876822
-5.340576e-05 159.6134 -200.14882 0.24999997 0.26485026
-5.340576e-05 -159.6134 -200.14882 0.24999997 0.72890496
-9.1552734e-05 -56.965363 -249.5815 0.24999994 0.59978426
0 -256 0 0.28124997 0.9871464
-2.2888184e-05 -230.64803 -111.07422 0.24999997 0.85802567
95.51063 -56.965363 -230.58327 0.23428836 0.5714286
-9.1552734e-05 56.965363 -249.5815 0.14571786 0.42857146
0 256 0 0.21874997 0.019186541
-42.50629 230.64803 -102.61919 0.18749997 0.14201841
-9.1552734e-05 56.965363 -249.5815 0.24999994 0.3876822
-76.59369 159.6134 -184.91338 0.18749997 0.26485026
-95.510796 -56.965363 -230.5832 0.18749994 0.59978426
0 -256 0 0.21874997 0.9871464
-42.50629 -230.64803 -102.61919 0.18749997 0.85802567
-9.1552734e-05 -56.965363 -249.5815 0.14571786 0.5714286
-95.510796 56.965363 -230.5832 0.057147354 0.42857146
-76.59369 -159.6134 -184.91338 0.18749997 0.72890496
-141.52663 -159.6134 -141.52654 0.12499997 0.72890496
-176.48083 -56.965363 -176.4807 0.12499994 0.59978426
0 -256 0 0.15624997 0.9871464
-78.54135 -230.64803 -78.541306 0.12499997 0.85802567
-78.54135 230.64803 -78.541306 0.12499997 0.14201841
-95.510796 -56.965363 -230.5832 0.045466617 0.5714286
-176.48083 56.965363 -176.4807 0.034958847 0.42857146
-95.510796 56.965363 -230.5832 0.045466617 0.42857146
0 256 0 0.15624997 0.019186541
-95.510796 56.965363 -230.5832 0.18749994 0.3876822
-141.52663 159.6134 -141.52654 0.12499997 0.26485026
-102.6192 230.64803 -42.50623 0.06249994 0.14201841
-176.48083 -56.965363 -176.4807 0.034958847 0.5714286
-230.58327 56.965363 -95.51061 0.02445107 0.42857146
-102.6192 -230.64803 -42.50623 0.06249994 0.85802567
-184.91342 -159.6134 -76.59357 0.06249994 0.72890496
0 256 0 0.09374997 0.019186541
-176.48083 56.965363 -176.4807 0.12499994 0.3876822
-184.91342 159.6134 -76.59357 0.06249994 0.26485026
-230.58327 -56.965363 -95.51061 0.06249994 0.59978426
0 -256 0 0.09374997 0.9871464
-111.0742 230.64803 3.8146973e-05 0 0.14201841
-230.58327 -56.965363 -95.51061 0.02445107 0.5714286
-249.58148 56.965363 0.00010681152 0.013943315 0.42857146
-111.0742 -230.64803 3.8146973e-05 0 0.85802567
-200.14882 -159.6134 7.6293945e-05 0 0.72890496
0 256 0 0.03124997 0.019186541
-230.58327 56.965363 -95.51061 0.06249994 0.3876822
-200.14882 159.6134 7.6293945e-05 0 0.26485026
-249.58148 -56.965363 0.00010681152 0 0.59978426
0 -256 0 0.03124997 0.9871464
-111.0742 -230.64803 3.8146973e-05 1 0.85802567
-184.91336 -159.6134 76.59371 0.93749994 0.72890496
-200.14882 -159.6134 7.6293945e-05 1 0.72890496
0 256 0 0.9687499 0.019186541
-111.0742 230.64803 3.8146973e-05 1 0.14201841
-102.61916 230.64803 42.506294 0.93749994 0.14201841
-249.58148 56.965363 0.00010681152 1 0.3876822
-184.91336 159.6134 76.59371 0.93749994 0.26485026
-200.14882 159.6134 7.6293945e-05 1 0.26485026
-249.58148 -56.965363 0.00010681152 1 0.59978426
-230.58318 -56.965363 95.5108 0.9374999 0.59978426
0 -256 0 0.9687499 0.9871464
-102.61916 -230.64803 42.506294 0.93749994 0.85802567
-249.58148 -56.965363 0.00010681152 0.99468946 0.5714286
-230.58318 56.965363 95.5108 0.97842634 0.42857146
-249.58148 56.965363 0.00010681152 0.99468946 0.42857146
0 256 0 0.90624994 0.019186541
-78.54128 230.64803 78.54135 0.8749999 0.14201841
-230.58318 56.965363 95.5108 0.9374999 0.3876822
-141.52652 159.6134 141.52664 0.8749999 0.26485026
-176.48067 -56.965363 176.48083 0.8749999 0.59978426
0 -256 0 0.90624994 0.9871464
-78.54128 -230.64803 78.54135 0.8749999 0.85802567
-230.58318 -56.965363 95.5108 0.97842634 0.5714286
-176.48067 56.965363 176.48083 0.9621633 0.42857146
-141.52652 -159.6134 141.52664 0.8749999 0.72890496
-176.48067 56.965363 176.48083 0.8749999 0.3876822
-76.593544 159.6134 184.91342 0.8124999 0.26485026
-95.51058 -56.965363 230.58325 0.8124999 0.59978426
0 -256 0 0.8437499 0.9871464
-42.506207 -230.64803 102.619194 0.8124999 0.85802567
-42.506207 230.64803 102.619194 0.8124999 0.14201841
-176.48067 -56.965363 176.48083 0.9621633 0.5714286
-95.51058 56.965363 230.58325 0.9459003 0.4285714
-76.593544 -159.6134 184.91342 0.8124999 0.72890496
0 256 0 0.8437499 0.019186541
0 -256 0 0.7812499 0.9871464
-95.51058 -56.965363 230.58325 0.9428524 0.5714286
-95.51058 56.965363 230.58325 0.9428524 0.4285714
0 256 0 0.78124994 0.019186541
0 56.965363 249.58154 0.75 0.3876822
230.58322 56.965363 -95.51076 0.43749997 0.3876822
-95.510796 -56.965363 -230.5832 0.057147354 0.5714286
-249.58148 -56.965363 0.00010681152 0.013943315 0.5714286
-249.58148 56.965363 0.00010681152 0 0.3876822
-95.51058 56.965363 230.58325 0.8124999 0.38768214
-95.51058 -56.965363 230.58325 0.9459003 0.5714286
3 0 1 2
3 3 4 5
3 6 7 8
3 9 10 11
3 3 2 1
3 12 13 14
3 6 11 15
3 11 16 15
3 17 2 18
3 4 19 5
3 15 20 7
3 11 21 22
3 2 19 18
3 23 24 13
3 25 18 26
3 27 28 19
3 20 29 30
3 22 31 32
3 19 26 18
3 33 34 24
3 22 29 16
3 35 36 28
3 29 37 30
3 32 38 39
3 28 40 26
3 41 42 34
3 32 43 29
3 44 26 40
3 39 45 46
3 36 47 40
3 48 49 42
3 39 50 43
3 51 40 47
3 52 53 36
3 37 50 54
3 53 55 47
3 56 57 49
3 50 58 59
3 60 47 55
3 53 61 62
3 54 59 63
3 46 64 58
3 65 66 57
3 58 67 59
3 68 55 69
3 61 70 62
3 59 71 63
3 58 72 73
3 62 69 55
3 74 69 75
3 76 77 70
3 71 78 79
3 73 80 81
3 70 75 69
3 82 83 66
3 73 78 67
3 84 75 85
3 86 87 77
3 78 88 79
3 81 89 90
3 77 85 75
3 91 92 83
3 78 90 93
3 88 94 95
3 90 96 97
3 87 98 85
3 99 100 101
3 90 94 93
3 102 85 98
3 103 104 87
3 104 105 98
3 106 107 100
3 94 108 109
3 110 98 105
3 111 112 104
3 95 109 113
3 97 114 108
3 112 115 105
3 116 117 107
3 109 118 119
3 120 105 115
3 121 122 112
3 113 119 123
3 108 124 118
3 125 126 127
3 128 129 130
3 131 132 133
3 134 126 135
3 125 136 137
3 133 130 129
3 138 139 140
3 141 130 142
3 143 144 132
3 126 145 135
3 137 146 147
3 130 144 142
3 148 149 139
3 137 150 126
3 151 152 144
3 150 153 145
3 147 154 155
3 144 156 142
3 157 158 149
3 147 159 150
3 160 142 156
3 155 161 9
3 152 1 156
3 162 14 163
3 155 6 159
3 164 156 1
3 152 165 3
3 153 6 8
3 3 165 4
3 6 15 7
3 3 5 2
3 12 23 13
3 6 9 11
3 11 22 16
3 4 27 19
3 15 16 20
3 2 5 19
3 23 33 24
3 27 35 28
3 20 16 29
3 19 28 26
3 33 41 34
3 22 32 29
3 35 52 36
3 29 43 37
3 28 36 40
3 41 48 42
3 32 39 43
3 36 53 47
3 48 56 49
3 39 46 50
3 52 166 53
3 37 43 50
3 53 62 55
3 56 65 57
3 50 46 58
3 53 166 61
3 54 50 59
3 65 82 66
3 58 73 67
3 61 76 70
3 59 67 71
3 62 70 69
3 76 86 77
3 71 67 78
3 70 77 75
3 82 91 83
3 73 81 78
3 86 103 87
3 78 93 88
3 77 87 85
3 91 167 92
3 78 81 90
3 88 93 94
3 87 104 98
3 99 106 100
3 90 97 94
3 103 111 104
3 104 112 105
3 106 116 107
3 94 97 108
3 111 121 112
3 95 94 109
3 112 122 115
3 116 168 117
3 109 108 118
3 121 169 122
3 113 109 119
3 125 137 126
3 131 143 132
3 134 127 126
3 133 132 130
3 138 148 139
3 143 151 144
3 126 150 145
3 130 132 144
3 148 157 149
3 137 147 150
3 151 170 152
3 150 159 153
3 144 152 156
3 157 171 158
3 147 155 159
3 152 3 1
3 162 12 14
3 155 9 6
3 152 170 165
3 153 159 6
